<?xml version="1.0" encoding="UTF-8"?>
<svg width="456px" height="286px" viewBox="0 0 456 286" version="1.1" xmlns="http://www.w3.org/2000/svg" xmlns:xlink="http://www.w3.org/1999/xlink">
    <!-- Generator: Sketch 57.1 (83088) - https://sketch.com -->
    <title>Logotype</title>
    <desc>Created with Sketch.</desc>
    <defs>
        <rect id="path-1" x="0" y="0" width="238" height="148"></rect>
    </defs>
    <g id="Page-1" stroke="none" stroke-width="1" fill="none" fill-rule="evenodd">
        <g id="geek-beer-logotype-copy" transform="translate(-12.000000, 0.000000)">
            <g id="Logotype" transform="translate(9.000000, 0.000000)">
                <g id="Group" transform="translate(117.000000, 0.000000)">
                    <mask id="mask-2" fill="white">
                        <use xlink:href="#path-1"></use>
                    </mask>
                    <g id="Rectangle"></g>
                    <circle id="ring-4" fill="#F6A713" mask="url(#mask-2)" cx="119" cy="119" r="119"></circle>
                    <circle id="ring-3" fill="#FFE38A" mask="url(#mask-2)" cx="119" cy="119" r="104"></circle>
                    <circle id="ring-2" fill="#09233B" mask="url(#mask-2)" cx="119" cy="119" r="89"></circle>
                    <circle id="ring-1" fill="#FFFFFF" mask="url(#mask-2)" cx="119" cy="119" r="74"></circle>
                    <path d="M133.173828,40.4150391 L92.5410156,81.1914063 L97.7324219,86.7363281 C83.8848952,109.534505 83.8848952,127.05957 97.7324219,139.311523 C111.579949,151.563477 126.052279,150.422201 141.149414,135.887695 L147.451317,143.486377 L194.291992,96.6835938 L174.759766,55.4912109 L133.173828,40.4150391 Z" id="Path" fill="#09233B" mask="url(#mask-2)"></path>
                    <path d="M123.02036,112.233789 L156.758348,112.233789 L156.758348,114.930713 C156.758348,121.064923 156.03565,126.49397 154.590232,131.218017 C153.180069,135.589524 150.800454,139.678936 147.451317,143.486377 C139.871689,152.017864 130.229842,156.283544 118.525487,156.283544 C107.103164,156.283544 97.3203032,152.158879 89.1766102,143.909423 C81.0329172,135.624714 76.9611318,125.683212 76.9611318,114.084619 C76.9611318,102.239248 81.1034244,92.1919849 89.3881336,83.9425296 C97.6728429,75.6578204 107.755359,71.5155279 119.635985,71.5155279 C126.016974,71.5155279 131.974824,72.8199093 137.509715,75.4287114 C142.797827,78.0375135 147.997726,82.2679399 153.109568,88.1201175 L144.331346,96.528174 C137.63307,87.6088913 129.471873,83.1493168 119.847508,83.1493168 C111.210258,83.1493168 103.965653,86.128242 98.1134753,92.0861819 C92.2612977,97.9383595 89.3352528,105.271099 89.3352528,114.084619 C89.3352528,123.180172 92.5962065,130.671552 99.1182116,136.558984 C105.217168,142.023367 111.827209,144.755517 118.948534,144.755517 C125.012236,144.755517 130.45891,142.710811 135.288719,138.621338 C140.118528,134.49661 142.815425,129.561112 143.37949,123.814697 L123.02036,123.814697 L123.02036,112.233789 Z" id="G" fill="#FFFFFF" fill-rule="nonzero" mask="url(#mask-2)"></path>
                </g>
                <path d="M41.356,186.708 L74.81,186.708 C74.81,190.148017 74.6666681,193.272653 74.38,196.082 C74.0933319,198.891347 73.5200043,201.499988 72.66,203.908 C71.455994,207.290684 69.8220103,210.28632 67.758,212.895 C65.6939897,215.50368 63.2716806,217.682325 60.491,219.431 C57.7103194,221.179675 54.65735,222.512662 51.332,223.43 C48.00665,224.347338 44.5093517,224.806 40.84,224.806 C35.7946414,224.806 31.1936875,223.974675 27.037,222.312 C22.8803126,220.649325 19.3113482,218.313015 16.33,215.303 C13.3486518,212.292985 11.026675,208.681021 9.364,204.467 C7.70132502,200.252979 6.87,195.594692 6.87,190.492 C6.87,185.446641 7.68699183,180.817021 9.321,176.603 C10.9550082,172.388979 13.2769849,168.791348 16.287,165.81 C19.2970151,162.828652 22.9233121,160.506675 27.166,158.844 C31.4086879,157.181325 36.1386406,156.35 41.356,156.35 C48.1213672,156.35 54.0553078,157.811985 59.158,160.736 C64.2606922,163.660015 68.3026518,168.189303 71.284,174.324 L55.288,180.946 C53.7973259,177.391316 51.8623452,174.840008 49.483,173.292 C47.1036548,171.743992 44.3946819,170.97 41.356,170.97 C38.8333207,170.97 36.5400103,171.442995 34.476,172.389 C32.4119897,173.335005 30.6490073,174.682325 29.187,176.431 C27.7249927,178.179675 26.5783375,180.286654 25.747,182.752 C24.9156625,185.217346 24.5,187.969318 24.5,191.008 C24.5,193.760014 24.8583297,196.311322 25.575,198.662 C26.2916703,201.012678 27.3666595,203.047991 28.8,204.768 C30.2333405,206.488009 32.0106561,207.820995 34.132,208.767 C36.2533439,209.713005 38.7186526,210.186 41.528,210.186 C43.190675,210.186 44.7959923,209.999669 46.344,209.627 C47.8920077,209.254331 49.2823272,208.652337 50.515,207.821 C51.7476728,206.989663 52.7653293,205.914673 53.568,204.596 C54.3706707,203.277327 54.9153319,201.672009 55.202,199.78 L41.356,199.78 L41.356,186.708 Z M118.185273,172.432 L98.147273,172.432 L98.147273,183.268 L117.067273,183.268 L117.067273,197.544 L98.147273,197.544 L98.147273,208.724 L118.185273,208.724 L118.185273,223 L81.291273,223 L81.291273,158.156 L118.185273,158.156 L118.185273,172.432 Z M163.022546,172.432 L142.984546,172.432 L142.984546,183.268 L161.904546,183.268 L161.904546,197.544 L142.984546,197.544 L142.984546,208.724 L163.022546,208.724 L163.022546,223 L126.128546,223 L126.128546,158.156 L163.022546,158.156 L163.022546,172.432 Z M187.821819,184.902 L208.375819,158.156 L229.187819,158.156 L203.473819,188.858 L231.595819,223 L209.751819,223 L187.821819,194.878 L187.821819,223 L170.965819,223 L170.965819,158.156 L187.821819,158.156 L187.821819,184.902 Z M276.808365,209.928 L280.506365,209.928 C284.749053,209.928 287.787689,209.383339 289.622365,208.294 C291.457041,207.204661 292.374365,205.456012 292.374365,203.048 C292.374365,200.639988 291.457041,198.891339 289.622365,197.802 C287.787689,196.712661 284.749053,196.168 280.506365,196.168 L276.808365,196.168 L276.808365,209.928 Z M276.808365,183.612 L279.904365,183.612 C285.179058,183.612 287.816365,181.519354 287.816365,177.334 C287.816365,173.148646 285.179058,171.056 279.904365,171.056 L276.808365,171.056 L276.808365,183.612 Z M259.952365,158.156 L285.064365,158.156 C291.027061,158.156 295.55635,159.589319 298.652365,162.456 C301.74838,165.322681 303.296365,169.45064 303.296365,174.84 C303.296365,178.108016 302.708704,180.816989 301.533365,182.967 C300.358026,185.117011 298.566377,186.937326 296.158365,188.428 C298.566377,188.886669 300.616023,189.588995 302.307365,190.535 C303.998707,191.481005 305.374693,192.641993 306.435365,194.018 C307.496037,195.394007 308.255696,196.941991 308.714365,198.662 C309.173034,200.382009 309.402365,202.216657 309.402365,204.166 C309.402365,207.204682 308.872037,209.899322 307.811365,212.25 C306.750693,214.600678 305.260041,216.578659 303.339365,218.184 C301.418689,219.789341 299.082379,220.993329 296.330365,221.796 C293.578351,222.598671 290.482382,223 287.042365,223 L259.952365,223 L259.952365,158.156 Z M352.175638,172.432 L332.137638,172.432 L332.137638,183.268 L351.057638,183.268 L351.057638,197.544 L332.137638,197.544 L332.137638,208.724 L352.175638,208.724 L352.175638,223 L315.281638,223 L315.281638,158.156 L352.175638,158.156 L352.175638,172.432 Z M397.012911,172.432 L376.974911,172.432 L376.974911,183.268 L395.894911,183.268 L395.894911,197.544 L376.974911,197.544 L376.974911,208.724 L397.012911,208.724 L397.012911,223 L360.118911,223 L360.118911,158.156 L397.012911,158.156 L397.012911,172.432 Z M421.812184,187.138 L424.994184,187.138 C428.319534,187.138 430.870842,186.450007 432.648184,185.074 C434.425526,183.697993 435.314184,181.720013 435.314184,179.14 C435.314184,176.559987 434.425526,174.582007 432.648184,173.206 C430.870842,171.829993 428.319534,171.142 424.994184,171.142 L421.812184,171.142 L421.812184,187.138 Z M458.878184,223 L437.894184,223 L421.812184,198.06 L421.812184,223 L404.956184,223 L404.956184,158.156 L431.186184,158.156 C434.798202,158.156 437.951504,158.686328 440.646184,159.747 C443.340864,160.807672 445.562509,162.255324 447.311184,164.09 C449.059859,165.924676 450.378513,168.045988 451.267184,170.454 C452.155855,172.862012 452.600184,175.441986 452.600184,178.194 C452.600184,183.124691 451.410529,187.123651 449.031184,190.191 C446.651839,193.258349 443.140207,195.336661 438.496184,196.426 L458.878184,223 Z" id="GEEKBEER" fill="#F6A713" fill-rule="nonzero"></path>
                <path d="M39.356,185.708 L72.81,185.708 C72.81,189.148017 72.6666681,192.272653 72.38,195.082 C72.0933319,197.891347 71.5200043,200.499988 70.66,202.908 C69.455994,206.290684 67.8220103,209.28632 65.758,211.895 C63.6939897,214.50368 61.2716806,216.682325 58.491,218.431 C55.7103194,220.179675 52.65735,221.512662 49.332,222.43 C46.00665,223.347338 42.5093517,223.806 38.84,223.806 C33.7946414,223.806 29.1936875,222.974675 25.037,221.312 C20.8803126,219.649325 17.3113482,217.313015 14.33,214.303 C11.3486518,211.292985 9.02667498,207.681021 7.364,203.467 C5.70132502,199.252979 4.87,194.594692 4.87,189.492 C4.87,184.446641 5.68699183,179.817021 7.321,175.603 C8.95500817,171.388979 11.2769849,167.791348 14.287,164.81 C17.2970151,161.828652 20.9233121,159.506675 25.166,157.844 C29.4086879,156.181325 34.1386406,155.35 39.356,155.35 C46.1213672,155.35 52.0553078,156.811985 57.158,159.736 C62.2606922,162.660015 66.3026518,167.189303 69.284,173.324 L53.288,179.946 C51.7973259,176.391316 49.8623452,173.840008 47.483,172.292 C45.1036548,170.743992 42.3946819,169.97 39.356,169.97 C36.8333207,169.97 34.5400103,170.442995 32.476,171.389 C30.4119897,172.335005 28.6490073,173.682325 27.187,175.431 C25.7249927,177.179675 24.5783375,179.286654 23.747,181.752 C22.9156625,184.217346 22.5,186.969318 22.5,190.008 C22.5,192.760014 22.8583297,195.311322 23.575,197.662 C24.2916703,200.012678 25.3666595,202.047991 26.8,203.768 C28.2333405,205.488009 30.0106561,206.820995 32.132,207.767 C34.2533439,208.713005 36.7186526,209.186 39.528,209.186 C41.190675,209.186 42.7959923,208.999669 44.344,208.627 C45.8920077,208.254331 47.2823272,207.652337 48.515,206.821 C49.7476728,205.989663 50.7653293,204.914673 51.568,203.596 C52.3706707,202.277327 52.9153319,200.672009 53.202,198.78 L39.356,198.78 L39.356,185.708 Z M116.185273,171.432 L96.147273,171.432 L96.147273,182.268 L115.067273,182.268 L115.067273,196.544 L96.147273,196.544 L96.147273,207.724 L116.185273,207.724 L116.185273,222 L79.291273,222 L79.291273,157.156 L116.185273,157.156 L116.185273,171.432 Z M161.022546,171.432 L140.984546,171.432 L140.984546,182.268 L159.904546,182.268 L159.904546,196.544 L140.984546,196.544 L140.984546,207.724 L161.022546,207.724 L161.022546,222 L124.128546,222 L124.128546,157.156 L161.022546,157.156 L161.022546,171.432 Z M185.821819,183.902 L206.375819,157.156 L227.187819,157.156 L201.473819,187.858 L229.595819,222 L207.751819,222 L185.821819,193.878 L185.821819,222 L168.965819,222 L168.965819,157.156 L185.821819,157.156 L185.821819,183.902 Z M274.808365,208.928 L278.506365,208.928 C282.749053,208.928 285.787689,208.383339 287.622365,207.294 C289.457041,206.204661 290.374365,204.456012 290.374365,202.048 C290.374365,199.639988 289.457041,197.891339 287.622365,196.802 C285.787689,195.712661 282.749053,195.168 278.506365,195.168 L274.808365,195.168 L274.808365,208.928 Z M274.808365,182.612 L277.904365,182.612 C283.179058,182.612 285.816365,180.519354 285.816365,176.334 C285.816365,172.148646 283.179058,170.056 277.904365,170.056 L274.808365,170.056 L274.808365,182.612 Z M257.952365,157.156 L283.064365,157.156 C289.027061,157.156 293.55635,158.589319 296.652365,161.456 C299.74838,164.322681 301.296365,168.45064 301.296365,173.84 C301.296365,177.108016 300.708704,179.816989 299.533365,181.967 C298.358026,184.117011 296.566377,185.937326 294.158365,187.428 C296.566377,187.886669 298.616023,188.588995 300.307365,189.535 C301.998707,190.481005 303.374693,191.641993 304.435365,193.018 C305.496037,194.394007 306.255696,195.941991 306.714365,197.662 C307.173034,199.382009 307.402365,201.216657 307.402365,203.166 C307.402365,206.204682 306.872037,208.899322 305.811365,211.25 C304.750693,213.600678 303.260041,215.578659 301.339365,217.184 C299.418689,218.789341 297.082379,219.993329 294.330365,220.796 C291.578351,221.598671 288.482382,222 285.042365,222 L257.952365,222 L257.952365,157.156 Z M350.175638,171.432 L330.137638,171.432 L330.137638,182.268 L349.057638,182.268 L349.057638,196.544 L330.137638,196.544 L330.137638,207.724 L350.175638,207.724 L350.175638,222 L313.281638,222 L313.281638,157.156 L350.175638,157.156 L350.175638,171.432 Z M395.012911,171.432 L374.974911,171.432 L374.974911,182.268 L393.894911,182.268 L393.894911,196.544 L374.974911,196.544 L374.974911,207.724 L395.012911,207.724 L395.012911,222 L358.118911,222 L358.118911,157.156 L395.012911,157.156 L395.012911,171.432 Z M419.812184,186.138 L422.994184,186.138 C426.319534,186.138 428.870842,185.450007 430.648184,184.074 C432.425526,182.697993 433.314184,180.720013 433.314184,178.14 C433.314184,175.559987 432.425526,173.582007 430.648184,172.206 C428.870842,170.829993 426.319534,170.142 422.994184,170.142 L419.812184,170.142 L419.812184,186.138 Z M456.878184,222 L435.894184,222 L419.812184,197.06 L419.812184,222 L402.956184,222 L402.956184,157.156 L429.186184,157.156 C432.798202,157.156 435.951504,157.686328 438.646184,158.747 C441.340864,159.807672 443.562509,161.255324 445.311184,163.09 C447.059859,164.924676 448.378513,167.045988 449.267184,169.454 C450.155855,171.862012 450.600184,174.441986 450.600184,177.194 C450.600184,182.124691 449.410529,186.123651 447.031184,189.191 C444.651839,192.258349 441.140207,194.336661 436.496184,195.426 L456.878184,222 Z" id="GEEKBEER" fill="#FCF4DB" fill-rule="nonzero"></path>
                <path d="M38.356,184.708 L71.81,184.708 C71.81,188.148017 71.6666681,191.272653 71.38,194.082 C71.0933319,196.891347 70.5200043,199.499988 69.66,201.908 C68.455994,205.290684 66.8220103,208.28632 64.758,210.895 C62.6939897,213.50368 60.2716806,215.682325 57.491,217.431 C54.7103194,219.179675 51.65735,220.512662 48.332,221.43 C45.00665,222.347338 41.5093517,222.806 37.84,222.806 C32.7946414,222.806 28.1936875,221.974675 24.037,220.312 C19.8803126,218.649325 16.3113482,216.313015 13.33,213.303 C10.3486518,210.292985 8.02667498,206.681021 6.364,202.467 C4.70132502,198.252979 3.87,193.594692 3.87,188.492 C3.87,183.446641 4.68699183,178.817021 6.321,174.603 C7.95500817,170.388979 10.2769849,166.791348 13.287,163.81 C16.2970151,160.828652 19.9233121,158.506675 24.166,156.844 C28.4086879,155.181325 33.1386406,154.35 38.356,154.35 C45.1213672,154.35 51.0553078,155.811985 56.158,158.736 C61.2606922,161.660015 65.3026518,166.189303 68.284,172.324 L52.288,178.946 C50.7973259,175.391316 48.8623452,172.840008 46.483,171.292 C44.1036548,169.743992 41.3946819,168.97 38.356,168.97 C35.8333207,168.97 33.5400103,169.442995 31.476,170.389 C29.4119897,171.335005 27.6490073,172.682325 26.187,174.431 C24.7249927,176.179675 23.5783375,178.286654 22.747,180.752 C21.9156625,183.217346 21.5,185.969318 21.5,189.008 C21.5,191.760014 21.8583297,194.311322 22.575,196.662 C23.2916703,199.012678 24.3666595,201.047991 25.8,202.768 C27.2333405,204.488009 29.0106561,205.820995 31.132,206.767 C33.2533439,207.713005 35.7186526,208.186 38.528,208.186 C40.190675,208.186 41.7959923,207.999669 43.344,207.627 C44.8920077,207.254331 46.2823272,206.652337 47.515,205.821 C48.7476728,204.989663 49.7653293,203.914673 50.568,202.596 C51.3706707,201.277327 51.9153319,199.672009 52.202,197.78 L38.356,197.78 L38.356,184.708 Z M115.185273,170.432 L95.147273,170.432 L95.147273,181.268 L114.067273,181.268 L114.067273,195.544 L95.147273,195.544 L95.147273,206.724 L115.185273,206.724 L115.185273,221 L78.291273,221 L78.291273,156.156 L115.185273,156.156 L115.185273,170.432 Z M160.022546,170.432 L139.984546,170.432 L139.984546,181.268 L158.904546,181.268 L158.904546,195.544 L139.984546,195.544 L139.984546,206.724 L160.022546,206.724 L160.022546,221 L123.128546,221 L123.128546,156.156 L160.022546,156.156 L160.022546,170.432 Z M184.821819,182.902 L205.375819,156.156 L226.187819,156.156 L200.473819,186.858 L228.595819,221 L206.751819,221 L184.821819,192.878 L184.821819,221 L167.965819,221 L167.965819,156.156 L184.821819,156.156 L184.821819,182.902 Z M273.808365,207.928 L277.506365,207.928 C281.749053,207.928 284.787689,207.383339 286.622365,206.294 C288.457041,205.204661 289.374365,203.456012 289.374365,201.048 C289.374365,198.639988 288.457041,196.891339 286.622365,195.802 C284.787689,194.712661 281.749053,194.168 277.506365,194.168 L273.808365,194.168 L273.808365,207.928 Z M273.808365,181.612 L276.904365,181.612 C282.179058,181.612 284.816365,179.519354 284.816365,175.334 C284.816365,171.148646 282.179058,169.056 276.904365,169.056 L273.808365,169.056 L273.808365,181.612 Z M256.952365,156.156 L282.064365,156.156 C288.027061,156.156 292.55635,157.589319 295.652365,160.456 C298.74838,163.322681 300.296365,167.45064 300.296365,172.84 C300.296365,176.108016 299.708704,178.816989 298.533365,180.967 C297.358026,183.117011 295.566377,184.937326 293.158365,186.428 C295.566377,186.886669 297.616023,187.588995 299.307365,188.535 C300.998707,189.481005 302.374693,190.641993 303.435365,192.018 C304.496037,193.394007 305.255696,194.941991 305.714365,196.662 C306.173034,198.382009 306.402365,200.216657 306.402365,202.166 C306.402365,205.204682 305.872037,207.899322 304.811365,210.25 C303.750693,212.600678 302.260041,214.578659 300.339365,216.184 C298.418689,217.789341 296.082379,218.993329 293.330365,219.796 C290.578351,220.598671 287.482382,221 284.042365,221 L256.952365,221 L256.952365,156.156 Z M349.175638,170.432 L329.137638,170.432 L329.137638,181.268 L348.057638,181.268 L348.057638,195.544 L329.137638,195.544 L329.137638,206.724 L349.175638,206.724 L349.175638,221 L312.281638,221 L312.281638,156.156 L349.175638,156.156 L349.175638,170.432 Z M394.012911,170.432 L373.974911,170.432 L373.974911,181.268 L392.894911,181.268 L392.894911,195.544 L373.974911,195.544 L373.974911,206.724 L394.012911,206.724 L394.012911,221 L357.118911,221 L357.118911,156.156 L394.012911,156.156 L394.012911,170.432 Z M418.812184,185.138 L421.994184,185.138 C425.319534,185.138 427.870842,184.450007 429.648184,183.074 C431.425526,181.697993 432.314184,179.720013 432.314184,177.14 C432.314184,174.559987 431.425526,172.582007 429.648184,171.206 C427.870842,169.829993 425.319534,169.142 421.994184,169.142 L418.812184,169.142 L418.812184,185.138 Z M455.878184,221 L434.894184,221 L418.812184,196.06 L418.812184,221 L401.956184,221 L401.956184,156.156 L428.186184,156.156 C431.798202,156.156 434.951504,156.686328 437.646184,157.747 C440.340864,158.807672 442.562509,160.255324 444.311184,162.09 C446.059859,163.924676 447.378513,166.045988 448.267184,168.454 C449.155855,170.862012 449.600184,173.441986 449.600184,176.194 C449.600184,181.124691 448.410529,185.123651 446.031184,188.191 C443.651839,191.258349 440.140207,193.336661 435.496184,194.426 L455.878184,221 Z" id="GEEKBEER" fill="#09233B" fill-rule="nonzero"></path>
                <path d="M128.616,241.202 C128.616,243.962 123.694,248.102 116.38,248.102 C114.724,248.102 113.16,247.78 111.688,247.182 C110.446,248.746 109.664,250.264 109.664,251.414 C109.664,253.024 110.906,254.22 112.516,254.22 C114.126,254.22 115.046,253.346 116.564,253.346 C117.392,253.346 118.22,253.944 118.22,254.772 C118.22,257.118 113.942,257.072 109.066,258.728 C104.144,260.384 99.912,265.122 99.912,269.538 C99.912,272.712 101.936,274.23 104.558,274.23 C109.342,274.23 114.08,269.86 114.08,266.548 C114.08,265.444 113.436,264.708 112.378,264.708 C109.066,264.708 107.548,268.204 107.364,269.032 C107.272,269.354 107.318,269.722 107.18,269.722 C106.996,269.722 106.766,269.4 106.766,268.434 C106.766,264.11 109.894,260.798 113.574,260.798 C115.966,260.798 117.576,262.73 117.576,264.8 C117.576,270.55 110.446,277.266 101.706,277.266 C96.094,277.266 92.506,273.172 92.506,269.262 C92.506,261.58 101.798,257.164 105.248,256.75 L105.248,256.52 C103.914,255.922 102.166,254.588 102.166,252.15 C102.166,248.93 103.914,246.17 106.536,244.008 C103.96,241.662 102.304,238.81 102.304,236.786 C102.304,235.36 103.132,234.348 103.316,234.348 C103.592,234.348 105.57,238.672 109.986,241.662 C114.218,239.362 119.37,238.12 123.142,238.12 C126.362,238.12 128.616,239.316 128.616,241.202 Z M125.902,241.432 C125.902,240.788 125.304,240.282 124.2,240.282 C121.118,240.282 117.714,241.892 115,243.962 C116.38,244.33 117.852,244.56 119.508,244.56 C123.786,244.56 125.902,242.72 125.902,241.432 Z M138.644,249.85 C138.644,251.506 136.62,252.978 135.24,252.978 C134.642,252.978 134.78,253.024 132.802,253.024 C129.398,259.372 125.902,265.628 125.902,267.79 C125.902,269.308 126.914,269.63 127.558,269.63 C130.502,269.63 135.378,261.488 135.792,261.488 C136.206,261.488 136.39,262.27 136.39,263.144 C136.39,264.018 129.536,274.23 125.534,274.23 C122.544,274.23 119.14,272.528 119.14,269.86 C119.14,266.64 124.062,258.13 126.362,253.852 L126.914,252.84 C125.994,252.748 124.568,252.472 124.568,251.322 C124.568,250.54 124.568,249.758 124.66,249.436 C124.706,249.206 124.798,249.114 125.12,249.114 C125.35,249.114 125.994,249.16 126.546,249.16 C127.19,249.16 128.57,248.884 128.984,248.884 C131.008,245.112 133.262,241.156 133.814,241.156 C135.93,241.156 137.218,243.134 137.218,244.146 C137.218,244.698 136.528,246.078 134.872,249.16 L137.356,249.16 C138.23,249.16 138.644,249.436 138.644,249.85 Z M151.984,249.85 C151.984,251.506 149.96,252.978 148.58,252.978 C147.982,252.978 148.12,253.024 146.142,253.024 C142.738,259.372 139.242,265.628 139.242,267.79 C139.242,269.308 140.254,269.63 140.898,269.63 C143.842,269.63 148.718,261.488 149.132,261.488 C149.546,261.488 149.73,262.27 149.73,263.144 C149.73,264.018 142.876,274.23 138.874,274.23 C135.884,274.23 132.48,272.528 132.48,269.86 C132.48,266.64 137.402,258.13 139.702,253.852 L140.254,252.84 C139.334,252.748 137.908,252.472 137.908,251.322 C137.908,250.54 137.908,249.758 138,249.436 C138.046,249.206 138.138,249.114 138.46,249.114 C138.69,249.114 139.334,249.16 139.886,249.16 C140.53,249.16 141.91,248.884 142.324,248.884 C144.348,245.112 146.602,241.156 147.154,241.156 C149.27,241.156 150.558,243.134 150.558,244.146 C150.558,244.698 149.868,246.078 148.212,249.16 L150.696,249.16 C151.57,249.16 151.984,249.436 151.984,249.85 Z M178.434,249.85 C178.434,251.506 176.41,252.978 175.03,252.978 C174.432,252.978 174.57,253.024 172.592,253.024 C169.188,259.372 165.692,265.628 165.692,267.79 C165.692,269.308 166.704,269.63 167.348,269.63 C170.292,269.63 175.168,261.488 175.582,261.488 C175.996,261.488 176.18,262.27 176.18,263.144 C176.18,264.018 169.326,274.23 165.324,274.23 C162.334,274.23 158.93,272.528 158.93,269.86 C158.93,266.64 163.852,258.13 166.152,253.852 L166.704,252.84 C165.784,252.748 164.358,252.472 164.358,251.322 C164.358,250.54 164.358,249.758 164.45,249.436 C164.496,249.206 164.588,249.114 164.91,249.114 C165.14,249.114 165.784,249.16 166.336,249.16 C166.98,249.16 168.36,248.884 168.774,248.884 C170.798,245.112 173.052,241.156 173.604,241.156 C175.72,241.156 177.008,243.134 177.008,244.146 C177.008,244.698 176.318,246.078 174.662,249.16 L177.146,249.16 C178.02,249.16 178.434,249.436 178.434,249.85 Z M193.89,263.052 C193.89,264.708 186.852,274.46 179.216,274.46 C176.088,274.46 173.65,271.286 173.65,267.514 C173.65,261.672 180.55,251.184 186.714,251.184 C188.37,251.184 189.244,250.678 190.21,250.678 C191.682,250.678 193.062,252.38 193.062,254.174 C193.062,257.624 187.956,263.604 180.55,263.604 C180.412,263.604 180.274,263.604 180.136,263.558 C179.538,264.938 179.17,266.226 179.17,267.33 C179.17,269.354 179.906,270.642 181.608,270.642 C187.726,270.642 192.786,261.534 193.338,261.534 C193.844,261.534 193.89,262.362 193.89,263.052 Z M189.658,254.128 C189.658,253.622 189.382,253.346 188.83,253.346 C187.22,253.346 183.586,257.21 181.286,261.258 C184.92,260.476 189.658,256.75 189.658,254.128 Z M213.118,263.144 C213.118,263.972 206.862,274.828 197.846,274.828 C194.396,274.828 191.36,272.528 191.36,267.56 C191.36,261.718 197.846,251.092 204.194,251.092 C205.666,251.092 206.08,250.678 207.552,250.678 C209.668,250.678 211.278,251.736 211.278,255.186 C211.278,257.716 209.392,259.51 208.242,260.108 C207.046,260.752 205.712,261.212 205.022,261.212 C204.7,261.212 204.746,261.12 204.746,260.982 C204.746,260.844 204.976,260.844 205.298,260.384 C205.62,259.878 206.908,256.934 206.908,254.404 C206.908,253.76 206.77,253.346 206.31,253.346 C204.7,253.346 197.34,262.178 197.34,267.882 C197.34,269.86 198.858,271.056 200.238,271.056 C207.046,271.056 212.014,261.534 212.566,261.534 C213.118,261.534 213.118,262.592 213.118,263.144 Z M235.612,263.006 C235.612,264.34 228.712,274.23 224.204,274.23 C222.042,274.23 219.972,272.528 219.972,270.136 C219.972,264.892 224.802,257.44 225.998,255.784 L225.814,255.692 C223.146,258.13 218.316,263.144 215.326,267.514 C212.75,271.378 211.968,274.184 211.048,274.184 C210.128,274.184 208.104,272.804 208.104,271.102 C208.104,269.998 212.244,261.856 216.246,254.082 C220.156,246.63 223.882,239.546 224.848,239.546 C225.538,239.546 228.022,240.144 228.022,241.432 C228.022,242.582 220.938,254.818 218.178,260.476 L218.224,260.568 C218.914,259.694 226.688,250.862 229.218,250.862 C230.92,250.862 233.496,251.828 233.496,252.61 C233.496,253.254 232.944,254.22 232.3,255.462 C231.656,256.704 226.136,266.272 226.136,268.71 C226.136,269.262 226.274,269.676 227.194,269.676 C229.586,269.676 234.6,261.442 235.014,261.442 C235.428,261.442 235.612,262.224 235.612,263.006 Z M282.9,263.006 C282.9,264.34 276.046,274.23 271.538,274.23 C269.33,274.23 267.306,272.528 267.306,270.136 C267.306,264.892 272.136,257.44 273.286,255.784 L273.148,255.692 C271.354,257.164 267.536,260.568 264.27,265.904 C261.556,270.228 259.854,274.552 258.934,274.552 C257.324,274.552 254.702,273.54 254.702,272.574 C254.702,272.482 254.702,272.39 254.748,272.298 C257.002,267.376 262.706,257.348 262.706,256.014 L262.568,255.876 C262.43,255.876 257.876,259.418 254.242,264.432 C251.16,268.756 248.124,274.322 246.882,274.322 C245.64,274.322 243.156,273.126 243.156,271.884 C243.156,270.688 245.41,266.042 248.492,260.154 C251.574,254.312 254.104,250.448 254.794,250.448 C255.576,250.448 258.658,251.184 258.658,252.104 C258.658,253.116 256.68,257.348 256.496,257.992 C256.634,257.992 263.35,250.954 265.374,250.954 C267.352,250.954 269.79,252.38 269.79,253.622 C269.79,253.944 269.192,255.416 268.318,257.44 C269.744,255.83 274.252,250.862 276.552,250.862 C278.254,250.862 280.462,252.012 280.462,252.84 C280.462,254.082 279.864,254.864 279.266,256.106 C278.622,257.348 273.424,266.732 273.424,268.71 C273.424,269.262 273.562,269.676 274.528,269.676 C276.874,269.676 281.934,261.442 282.302,261.442 C282.762,261.442 282.9,262.224 282.9,263.006 Z M300.61,263.052 C300.61,264.708 293.572,274.46 285.936,274.46 C282.808,274.46 280.37,271.286 280.37,267.514 C280.37,261.672 287.27,251.184 293.434,251.184 C295.09,251.184 295.964,250.678 296.93,250.678 C298.402,250.678 299.782,252.38 299.782,254.174 C299.782,257.624 294.676,263.604 287.27,263.604 C287.132,263.604 286.994,263.604 286.856,263.558 C286.258,264.938 285.89,266.226 285.89,267.33 C285.89,269.354 286.626,270.642 288.328,270.642 C294.446,270.642 299.506,261.534 300.058,261.534 C300.564,261.534 300.61,262.362 300.61,263.052 Z M296.378,254.128 C296.378,253.622 296.102,253.346 295.55,253.346 C293.94,253.346 290.306,257.21 288.006,261.258 C291.64,260.476 296.378,256.75 296.378,254.128 Z M318.366,263.052 C318.366,264.708 311.328,274.46 303.692,274.46 C300.564,274.46 298.126,271.286 298.126,267.514 C298.126,261.672 305.026,251.184 311.19,251.184 C312.846,251.184 313.72,250.678 314.686,250.678 C316.158,250.678 317.538,252.38 317.538,254.174 C317.538,257.624 312.432,263.604 305.026,263.604 C304.888,263.604 304.75,263.604 304.612,263.558 C304.014,264.938 303.646,266.226 303.646,267.33 C303.646,269.354 304.382,270.642 306.084,270.642 C312.202,270.642 317.262,261.534 317.814,261.534 C318.32,261.534 318.366,262.362 318.366,263.052 Z M314.134,254.128 C314.134,253.622 313.858,253.346 313.306,253.346 C311.696,253.346 308.062,257.21 305.762,261.258 C309.396,260.476 314.134,256.75 314.134,254.128 Z M334.006,249.85 C334.006,251.506 331.982,252.978 330.602,252.978 C330.004,252.978 330.142,253.024 328.164,253.024 C324.76,259.372 321.264,265.628 321.264,267.79 C321.264,269.308 322.276,269.63 322.92,269.63 C325.864,269.63 330.74,261.488 331.154,261.488 C331.568,261.488 331.752,262.27 331.752,263.144 C331.752,264.018 324.898,274.23 320.896,274.23 C317.906,274.23 314.502,272.528 314.502,269.86 C314.502,266.64 319.424,258.13 321.724,253.852 L322.276,252.84 C321.356,252.748 319.93,252.472 319.93,251.322 C319.93,250.54 319.93,249.758 320.022,249.436 C320.068,249.206 320.16,249.114 320.482,249.114 C320.712,249.114 321.356,249.16 321.908,249.16 C322.552,249.16 323.932,248.884 324.346,248.884 C326.37,245.112 328.624,241.156 329.176,241.156 C331.292,241.156 332.58,243.134 332.58,244.146 C332.58,244.698 331.89,246.078 330.234,249.16 L332.718,249.16 C333.592,249.16 334.006,249.436 334.006,249.85 Z M354.752,263.006 C354.752,264.34 347.898,274.23 343.39,274.23 C341.182,274.23 339.158,272.528 339.158,270.136 C339.158,269.676 339.158,269.538 339.204,269.262 C338.468,270.32 334.926,274.276 332.81,274.276 C330.74,274.276 328.624,271.608 328.624,268.986 C328.624,263.374 335.8,251.782 338.146,250.816 C338.33,250.77 338.79,250.724 339.342,250.724 C340.492,250.724 342.102,250.954 342.102,251.736 C342.102,251.828 342.056,251.966 341.964,252.104 C340.998,253.944 334.098,265.996 334.098,269.17 C334.098,269.86 334.374,270.136 334.742,270.136 C335.8,270.136 339.572,265.996 342.194,261.534 C344.494,257.716 347.484,250.862 348.496,250.862 C350.75,250.862 352.452,251.644 352.452,252.472 C352.452,253.714 351.716,254.864 351.118,256.106 C350.474,257.348 345.276,266.732 345.276,268.71 C345.276,269.262 345.414,269.676 346.38,269.676 C348.726,269.676 353.786,261.442 354.154,261.442 C354.614,261.442 354.752,262.224 354.752,263.006 Z M373.842,256.06 C373.842,262.914 366.666,274.368 360.318,274.368 C358.202,274.368 356.086,272.574 355.212,270.642 C351.026,279.198 347.622,285.5 346.104,285.5 C345.092,285.5 343.436,283.89 343.436,282.694 C343.436,281.452 347.07,274.782 351.854,265.674 C356.684,256.566 360.134,249.39 361.192,249.39 C362.664,249.39 364.412,250.218 364.412,250.908 C364.412,251.322 364.136,252.15 363.584,253.392 C365.516,251.966 367.632,250.724 369.61,250.724 C372.37,250.724 373.842,252.518 373.842,256.06 Z M368.552,255.462 C368.552,254.542 368.092,253.852 367.172,253.852 C365.976,253.852 363.676,255.6 361.744,257.256 C360.686,259.51 359.26,262.362 357.558,265.858 C358.018,268.02 358.938,270.09 360.134,270.09 C362.664,270.09 368.552,258.222 368.552,255.462 Z" id="Etttechmeetup" fill="#F6A713" fill-rule="nonzero"></path>
            </g>
        </g>
    </g>
</svg>